<svg xmlns="http://www.w3.org/2000/svg" xmlns:xlink="http://www.w3.org/1999/xlink" width="100" zoomAndPan="magnify" viewBox="0 0 75 37.5" height="50" preserveAspectRatio="xMidYMid meet" version="1.0"><defs><g/></defs><g fill="#8c52ff" fill-opacity="0.4"><g transform="translate(24.143998, 33.529926)"><g><path d="M 1.546875 -13.800781 C 1.546875 -9.953125 3.210938 -6.425781 5.59375 -3.886719 C 8.011719 -1.347656 11.5 0.199219 15.269531 0.199219 C 21.734375 0.199219 26.8125 -4.085938 28.398438 -10.390625 L 24.46875 -10.390625 C 23.042969 -6.1875 19.472656 -3.769531 15.269531 -3.769531 C 12.613281 -3.769531 9.953125 -4.878906 8.210938 -6.703125 C 6.464844 -8.527344 5.433594 -11.027344 5.433594 -13.800781 C 5.433594 -16.65625 6.503906 -19.117188 8.25 -20.941406 C 9.996094 -22.765625 12.613281 -24.035156 15.269531 -24.035156 C 19.355469 -24.035156 22.765625 -21.8125 24.234375 -17.648438 L 28.199219 -17.648438 C 26.613281 -23.914062 21.613281 -28 15.269531 -28 C 11.5 -28 7.890625 -26.253906 5.472656 -23.757812 C 3.09375 -21.21875 1.546875 -17.726562 1.546875 -13.800781 Z M 1.546875 -13.800781 "/></g></g></g><g fill="#8c52ff" fill-opacity="1"><g transform="translate(22.391147, 31.777075)"><g><path d="M 1.546875 -13.800781 C 1.546875 -9.953125 3.210938 -6.425781 5.59375 -3.886719 C 8.011719 -1.347656 11.5 0.199219 15.269531 0.199219 C 21.734375 0.199219 26.8125 -4.085938 28.398438 -10.390625 L 24.46875 -10.390625 C 23.042969 -6.1875 19.472656 -3.769531 15.269531 -3.769531 C 12.613281 -3.769531 9.953125 -4.878906 8.210938 -6.703125 C 6.464844 -8.527344 5.433594 -11.027344 5.433594 -13.800781 C 5.433594 -16.65625 6.503906 -19.117188 8.25 -20.941406 C 9.996094 -22.765625 12.613281 -24.035156 15.269531 -24.035156 C 19.355469 -24.035156 22.765625 -21.8125 24.234375 -17.648438 L 28.199219 -17.648438 C 26.613281 -23.914062 21.613281 -28 15.269531 -28 C 11.5 -28 7.890625 -26.253906 5.472656 -23.757812 C 3.09375 -21.21875 1.546875 -17.726562 1.546875 -13.800781 Z M 1.546875 -13.800781 "/></g></g></g></svg>